<mxfile host="Electron" modified="2023-05-16T01:45:41.578Z" agent="Mozilla/5.0 (Windows NT 10.0; Win64; x64) AppleWebKit/537.36 (KHTML, like Gecko) draw.io/21.2.8 Chrome/112.0.5615.165 Electron/24.2.0 Safari/537.36" version="21.2.8" etag="0EKsDu5wzvCoc_70iYHa" type="device">
  <diagram id="nHAlPSVTd2bLyVDuzLK_" name="Page-1">
    <mxGraphModel dx="5514" dy="2467" grid="1" gridSize="10" guides="1" tooltips="1" connect="0" arrows="1" fold="1" page="1" pageScale="1" pageWidth="827" pageHeight="1169" math="0" shadow="0">
      <root>
        <mxCell id="0" />
        <mxCell id="1" parent="0" />
        <mxCell id="245" value="ethtxmanager/ethtxmanager.go&lt;br&gt;#ProcessPendingMonitoredTxs" style="whiteSpace=wrap;html=1;rounded=1;verticalAlign=top;movable=0;resizable=0;rotatable=0;deletable=0;editable=0;connectable=0;" parent="1" vertex="1">
          <mxGeometry x="-1087" y="46" width="260" height="42" as="geometry" />
        </mxCell>
        <mxCell id="252" value="aggregator/aggregator.go&lt;br&gt;#Start" style="whiteSpace=wrap;html=1;rounded=1;verticalAlign=top;movable=0;resizable=0;rotatable=0;deletable=0;editable=0;connectable=0;" parent="1" vertex="1">
          <mxGeometry x="-1470" y="70" width="260" height="250" as="geometry" />
        </mxCell>
        <mxCell id="wpUrbpQFlTFq2Zsuffso-551" value="" style="edgeStyle=orthogonalEdgeStyle;html=1;entryX=0.002;entryY=0.5;entryDx=0;entryDy=0;entryPerimeter=0;exitX=0.998;exitY=0.495;exitDx=0;exitDy=0;exitPerimeter=0;movable=0;resizable=0;rotatable=0;deletable=0;editable=0;connectable=0;" parent="1" source="254" target="wpUrbpQFlTFq2Zsuffso-549" edge="1">
          <mxGeometry relative="1" as="geometry">
            <Array as="points">
              <mxPoint x="-1140" y="163" />
              <mxPoint x="-1140" y="125" />
            </Array>
          </mxGeometry>
        </mxCell>
        <mxCell id="254" value="删除未生成的递归证明" style="rounded=1;whiteSpace=wrap;html=1;movable=0;resizable=0;rotatable=0;deletable=0;editable=0;connectable=0;" parent="1" vertex="1">
          <mxGeometry x="-1450" y="148" width="220" height="30" as="geometry" />
        </mxCell>
        <mxCell id="256" style="html=1;exitX=1;exitY=0.5;exitDx=0;exitDy=0;entryX=0;entryY=0.5;entryDx=0;entryDy=0;movable=0;resizable=0;rotatable=0;deletable=0;editable=0;connectable=0;edgeStyle=orthogonalEdgeStyle;" parent="1" source="255" target="245" edge="1">
          <mxGeometry relative="1" as="geometry">
            <Array as="points">
              <mxPoint x="-1180" y="123" />
              <mxPoint x="-1180" y="67" />
            </Array>
          </mxGeometry>
        </mxCell>
        <mxCell id="255" value="开始前处理监控批次验证" style="rounded=1;whiteSpace=wrap;html=1;movable=0;resizable=0;rotatable=0;deletable=0;editable=0;connectable=0;" parent="1" vertex="1">
          <mxGeometry x="-1450" y="108" width="220" height="30" as="geometry" />
        </mxCell>
        <mxCell id="305" value="cmd/run.go&lt;br&gt;#runAggregator" style="whiteSpace=wrap;html=1;rounded=1;verticalAlign=top;movable=0;resizable=0;rotatable=0;deletable=0;editable=0;connectable=0;" parent="1" vertex="1">
          <mxGeometry x="-1470" y="-77.5" width="260" height="97.5" as="geometry" />
        </mxCell>
        <mxCell id="307" value="启动聚合器" style="rounded=1;whiteSpace=wrap;html=1;movable=0;resizable=0;rotatable=0;deletable=0;editable=0;connectable=0;" parent="1" vertex="1">
          <mxGeometry x="-1450" y="-27.5" width="220" height="30" as="geometry" />
        </mxCell>
        <mxCell id="310" style="edgeStyle=orthogonalEdgeStyle;html=1;exitX=0.502;exitY=1;exitDx=0;exitDy=0;entryX=0.5;entryY=0;entryDx=0;entryDy=0;movable=0;resizable=0;rotatable=0;deletable=0;editable=0;connectable=0;exitPerimeter=0;" parent="1" source="307" target="252" edge="1">
          <mxGeometry relative="1" as="geometry">
            <mxPoint x="-1340" y="122.5" as="sourcePoint" />
          </mxGeometry>
        </mxCell>
        <mxCell id="TS-1ozfXXY_XZwINqG7y-356" value="" style="edgeStyle=orthogonalEdgeStyle;rounded=0;orthogonalLoop=1;jettySize=auto;html=1;movable=0;resizable=0;rotatable=0;deletable=0;editable=0;connectable=0;" parent="1" source="TS-1ozfXXY_XZwINqG7y-355" target="311" edge="1">
          <mxGeometry relative="1" as="geometry" />
        </mxCell>
        <mxCell id="311" value="cmd/run.go&lt;br&gt;#start" style="whiteSpace=wrap;html=1;rounded=1;verticalAlign=top;movable=0;resizable=0;rotatable=0;deletable=0;editable=0;connectable=0;" parent="1" vertex="1">
          <mxGeometry x="-1870" y="-235.5" width="260" height="335.5" as="geometry" />
        </mxCell>
        <mxCell id="312" value="启动Aggregator服务" style="rounded=1;whiteSpace=wrap;html=1;movable=0;resizable=0;rotatable=0;deletable=0;editable=0;connectable=0;" parent="1" vertex="1">
          <mxGeometry x="-1850" y="-145.5" width="220" height="30" as="geometry" />
        </mxCell>
        <mxCell id="313" value="启动" style="rounded=1;whiteSpace=wrap;html=1;movable=0;resizable=0;rotatable=0;deletable=0;editable=0;connectable=0;" parent="1" vertex="1">
          <mxGeometry x="-1850" y="-185.5" width="220" height="30" as="geometry" />
        </mxCell>
        <mxCell id="314" value="启动rpc服务" style="rounded=1;whiteSpace=wrap;html=1;movable=0;resizable=0;rotatable=0;deletable=0;editable=0;connectable=0;" parent="1" vertex="1">
          <mxGeometry x="-1850" y="-65.5" width="220" height="30" as="geometry" />
        </mxCell>
        <mxCell id="wpUrbpQFlTFq2Zsuffso-786" value="" style="edgeStyle=orthogonalEdgeStyle;html=1;fontColor=#66CC00;entryX=0;entryY=0.5;entryDx=0;entryDy=0;entryPerimeter=0;exitX=0.997;exitY=0.5;exitDx=0;exitDy=0;exitPerimeter=0;movable=0;resizable=0;rotatable=0;deletable=0;editable=0;connectable=0;" parent="1" source="315" target="wpUrbpQFlTFq2Zsuffso-614" edge="1">
          <mxGeometry relative="1" as="geometry" />
        </mxCell>
        <mxCell id="315" value="启动Sequencer服务" style="rounded=1;whiteSpace=wrap;html=1;movable=0;resizable=0;rotatable=0;deletable=0;editable=0;connectable=0;" parent="1" vertex="1">
          <mxGeometry x="-1850" y="-105.5" width="220" height="30" as="geometry" />
        </mxCell>
        <mxCell id="319" style="edgeStyle=orthogonalEdgeStyle;html=1;exitX=1.004;exitY=0.5;exitDx=0;exitDy=0;movable=0;resizable=0;rotatable=0;deletable=0;editable=0;connectable=0;exitPerimeter=0;" parent="1" source="312" target="305" edge="1">
          <mxGeometry relative="1" as="geometry" />
        </mxCell>
        <mxCell id="317" value="启动ETHTxManager服务" style="rounded=1;whiteSpace=wrap;html=1;movable=0;resizable=0;rotatable=0;deletable=0;editable=0;connectable=0;" parent="1" vertex="1">
          <mxGeometry x="-1850" y="14.5" width="220" height="30" as="geometry" />
        </mxCell>
        <mxCell id="wpUrbpQFlTFq2Zsuffso-800" value="" style="edgeStyle=orthogonalEdgeStyle;html=1;fontColor=#66CC00;" parent="1" source="318" target="wpUrbpQFlTFq2Zsuffso-787" edge="1">
          <mxGeometry relative="1" as="geometry" />
        </mxCell>
        <mxCell id="318" value="启动Synchronizer服务" style="rounded=1;whiteSpace=wrap;html=1;movable=1;resizable=1;rotatable=1;deletable=1;editable=1;connectable=1;" parent="1" vertex="1">
          <mxGeometry x="-1850" y="-25.5" width="220" height="30" as="geometry" />
        </mxCell>
        <mxCell id="TS-1ozfXXY_XZwINqG7y-355" value="入口" style="whiteSpace=wrap;html=1;verticalAlign=middle;rounded=1;movable=0;resizable=0;rotatable=0;deletable=0;editable=0;connectable=0;" parent="1" vertex="1">
          <mxGeometry x="-1800" y="-388.75" width="120" height="60" as="geometry" />
        </mxCell>
        <mxCell id="wpUrbpQFlTFq2Zsuffso-539" value="启动L2GasPrice服务（维护建议的L2 gasPrice）" style="rounded=1;whiteSpace=wrap;html=1;movable=0;resizable=0;rotatable=0;deletable=0;editable=0;connectable=0;" parent="1" vertex="1">
          <mxGeometry x="-1850" y="55" width="220" height="30" as="geometry" />
        </mxCell>
        <mxCell id="wpUrbpQFlTFq2Zsuffso-605" value="" style="edgeStyle=orthogonalEdgeStyle;html=1;fontColor=#FF0000;entryX=-0.002;entryY=0.5;entryDx=0;entryDy=0;entryPerimeter=0;exitX=1.005;exitY=0.5;exitDx=0;exitDy=0;exitPerimeter=0;movable=0;resizable=0;rotatable=0;deletable=0;editable=0;connectable=0;" parent="1" source="wpUrbpQFlTFq2Zsuffso-542" target="wpUrbpQFlTFq2Zsuffso-602" edge="1">
          <mxGeometry relative="1" as="geometry">
            <Array as="points">
              <mxPoint x="-1140" y="243" />
              <mxPoint x="-1140" y="303" />
            </Array>
          </mxGeometry>
        </mxCell>
        <mxCell id="wpUrbpQFlTFq2Zsuffso-542" value="定时从存储中删除锁定在生成状态并且超过设定阈值的证明" style="rounded=1;whiteSpace=wrap;html=1;movable=0;resizable=0;rotatable=0;deletable=0;editable=0;connectable=0;" parent="1" vertex="1">
          <mxGeometry x="-1450" y="228" width="220" height="30" as="geometry" />
        </mxCell>
        <mxCell id="wpUrbpQFlTFq2Zsuffso-593" value="" style="html=1;fontColor=#FF0000;entryX=0.002;entryY=0.501;entryDx=0;entryDy=0;entryPerimeter=0;exitX=0.998;exitY=0.495;exitDx=0;exitDy=0;exitPerimeter=0;movable=0;resizable=0;rotatable=0;deletable=0;editable=0;connectable=0;" parent="1" source="wpUrbpQFlTFq2Zsuffso-543" target="wpUrbpQFlTFq2Zsuffso-545" edge="1">
          <mxGeometry relative="1" as="geometry" />
        </mxCell>
        <mxCell id="wpUrbpQFlTFq2Zsuffso-543" value="启动聚合器grpc服务" style="rounded=1;whiteSpace=wrap;html=1;movable=0;resizable=0;rotatable=0;deletable=0;editable=0;connectable=0;" parent="1" vertex="1">
          <mxGeometry x="-1450" y="188" width="220" height="30" as="geometry" />
        </mxCell>
        <mxCell id="wpUrbpQFlTFq2Zsuffso-607" value="" style="edgeStyle=orthogonalEdgeStyle;html=1;fontColor=#FF0000;entryX=0.002;entryY=0.498;entryDx=0;entryDy=0;entryPerimeter=0;exitX=1.002;exitY=0.5;exitDx=0;exitDy=0;exitPerimeter=0;movable=0;resizable=0;rotatable=0;deletable=0;editable=0;connectable=0;" parent="1" source="wpUrbpQFlTFq2Zsuffso-544" target="wpUrbpQFlTFq2Zsuffso-594" edge="1">
          <mxGeometry relative="1" as="geometry">
            <Array as="points">
              <mxPoint x="-1180" y="283" />
              <mxPoint x="-1180" y="506" />
            </Array>
          </mxGeometry>
        </mxCell>
        <mxCell id="wpUrbpQFlTFq2Zsuffso-544" value="等待从证明者那里接收最终证明&lt;br&gt;&lt;font color=&quot;#ff0000&quot;&gt;msg := &amp;lt;-a.finalProof&lt;/font&gt;" style="rounded=1;whiteSpace=wrap;html=1;movable=0;resizable=0;rotatable=0;deletable=0;editable=0;connectable=0;" parent="1" vertex="1">
          <mxGeometry x="-1450" y="268" width="220" height="30" as="geometry" />
        </mxCell>
        <mxCell id="wpUrbpQFlTFq2Zsuffso-545" value="aggregator/aggregator.go&lt;br&gt;#133" style="whiteSpace=wrap;html=1;rounded=1;verticalAlign=top;movable=0;resizable=0;rotatable=0;deletable=0;editable=0;connectable=0;" parent="1" vertex="1">
          <mxGeometry x="-1087" y="162" width="260" height="82" as="geometry" />
        </mxCell>
        <mxCell id="wpUrbpQFlTFq2Zsuffso-562" value="" style="edgeStyle=none;html=1;fontColor=#FF0000;entryX=-0.003;entryY=0.502;entryDx=0;entryDy=0;entryPerimeter=0;exitX=1.003;exitY=0.5;exitDx=0;exitDy=0;exitPerimeter=0;movable=0;resizable=0;rotatable=0;deletable=0;editable=0;connectable=0;" parent="1" source="wpUrbpQFlTFq2Zsuffso-548" target="wpUrbpQFlTFq2Zsuffso-554" edge="1">
          <mxGeometry relative="1" as="geometry" />
        </mxCell>
        <mxCell id="wpUrbpQFlTFq2Zsuffso-548" value="实现证明者客户端和聚合器服务器之间的双向通信通道" style="rounded=1;whiteSpace=wrap;html=1;movable=0;resizable=0;rotatable=0;deletable=0;editable=0;connectable=0;" parent="1" vertex="1">
          <mxGeometry x="-1067" y="202" width="220" height="30" as="geometry" />
        </mxCell>
        <mxCell id="wpUrbpQFlTFq2Zsuffso-549" value="state/pgstatestorage.go&lt;br&gt;#DeleteUngeneratedProofs" style="whiteSpace=wrap;html=1;rounded=1;verticalAlign=top;movable=0;resizable=0;rotatable=0;deletable=0;editable=0;connectable=0;" parent="1" vertex="1">
          <mxGeometry x="-1087" y="104" width="260" height="42" as="geometry" />
        </mxCell>
        <mxCell id="wpUrbpQFlTFq2Zsuffso-554" value="aggregator/aggregator.go&lt;br&gt;#Channel" style="whiteSpace=wrap;html=1;rounded=1;verticalAlign=top;movable=0;resizable=0;rotatable=0;deletable=0;editable=0;connectable=0;" parent="1" vertex="1">
          <mxGeometry x="-750" y="136" width="260" height="162" as="geometry" />
        </mxCell>
        <mxCell id="wpUrbpQFlTFq2Zsuffso-589" value="" style="edgeStyle=orthogonalEdgeStyle;html=1;fontColor=#FF0000;entryX=-0.004;entryY=0.5;entryDx=0;entryDy=0;entryPerimeter=0;exitX=1.004;exitY=0.497;exitDx=0;exitDy=0;exitPerimeter=0;movable=0;resizable=0;rotatable=0;deletable=0;editable=0;connectable=0;" parent="1" source="wpUrbpQFlTFq2Zsuffso-555" target="wpUrbpQFlTFq2Zsuffso-571" edge="1">
          <mxGeometry relative="1" as="geometry" />
        </mxCell>
        <mxCell id="wpUrbpQFlTFq2Zsuffso-555" value="尝试生成批次证明" style="rounded=1;whiteSpace=wrap;html=1;movable=0;resizable=0;rotatable=0;deletable=0;editable=0;connectable=0;" parent="1" vertex="1">
          <mxGeometry x="-730" y="256" width="220" height="30" as="geometry" />
        </mxCell>
        <mxCell id="wpUrbpQFlTFq2Zsuffso-587" value="" style="edgeStyle=none;html=1;fontColor=#FF0000;entryX=-0.004;entryY=0.501;entryDx=0;entryDy=0;entryPerimeter=0;movable=0;resizable=0;rotatable=0;deletable=0;editable=0;connectable=0;" parent="1" source="wpUrbpQFlTFq2Zsuffso-556" target="wpUrbpQFlTFq2Zsuffso-579" edge="1">
          <mxGeometry relative="1" as="geometry" />
        </mxCell>
        <mxCell id="wpUrbpQFlTFq2Zsuffso-556" value="尝试聚合证明" style="rounded=1;whiteSpace=wrap;html=1;movable=0;resizable=0;rotatable=0;deletable=0;editable=0;connectable=0;" parent="1" vertex="1">
          <mxGeometry x="-730" y="216" width="220" height="30" as="geometry" />
        </mxCell>
        <mxCell id="wpUrbpQFlTFq2Zsuffso-591" value="" style="edgeStyle=orthogonalEdgeStyle;html=1;fontColor=#FF0000;entryX=0;entryY=0.495;entryDx=0;entryDy=0;entryPerimeter=0;exitX=0.998;exitY=0.497;exitDx=0;exitDy=0;exitPerimeter=0;movable=0;resizable=0;rotatable=0;deletable=0;editable=0;connectable=0;" parent="1" source="wpUrbpQFlTFq2Zsuffso-557" target="wpUrbpQFlTFq2Zsuffso-563" edge="1">
          <mxGeometry relative="1" as="geometry" />
        </mxCell>
        <mxCell id="wpUrbpQFlTFq2Zsuffso-557" value="检查提供的证明是否有资格用于构建最终证明" style="rounded=1;whiteSpace=wrap;html=1;movable=0;resizable=0;rotatable=0;deletable=0;editable=0;connectable=0;" parent="1" vertex="1">
          <mxGeometry x="-730" y="176" width="220" height="30" as="geometry" />
        </mxCell>
        <mxCell id="wpUrbpQFlTFq2Zsuffso-563" value="aggregator/aggregator.go&lt;br&gt;#tryBuildFinalProof" style="whiteSpace=wrap;html=1;rounded=1;verticalAlign=top;movable=0;resizable=0;rotatable=0;deletable=0;editable=0;connectable=0;" parent="1" vertex="1">
          <mxGeometry x="-340" y="-150" width="260" height="210" as="geometry" />
        </mxCell>
        <mxCell id="wpUrbpQFlTFq2Zsuffso-564" value="目前有证明生成，检查它是否有资格被验证" style="rounded=1;whiteSpace=wrap;html=1;movable=0;resizable=0;rotatable=0;deletable=0;editable=0;connectable=0;" parent="1" vertex="1">
          <mxGeometry x="-320" y="-65.5" width="220" height="30" as="geometry" />
        </mxCell>
        <mxCell id="wpUrbpQFlTFq2Zsuffso-565" value="执行maticchain监听器" style="rounded=1;whiteSpace=wrap;html=1;movable=0;resizable=0;rotatable=0;deletable=0;editable=0;connectable=0;" parent="1" vertex="1">
          <mxGeometry x="-320" y="-105.5" width="220" height="30" as="geometry" />
        </mxCell>
        <mxCell id="wpUrbpQFlTFq2Zsuffso-568" value="通过channel返回证明结果&lt;br&gt;&lt;font color=&quot;#ff0000&quot;&gt;a.finalProof &amp;lt;- msg&lt;/font&gt;" style="rounded=1;whiteSpace=wrap;html=1;movable=0;resizable=0;rotatable=0;deletable=0;editable=0;connectable=0;" parent="1" vertex="1">
          <mxGeometry x="-320" y="14.5" width="220" height="30" as="geometry" />
        </mxCell>
        <mxCell id="wpUrbpQFlTFq2Zsuffso-569" value="构建并返回聚合批证明的最终证明" style="rounded=1;whiteSpace=wrap;html=1;movable=0;resizable=0;rotatable=0;deletable=0;editable=0;connectable=0;" parent="1" vertex="1">
          <mxGeometry x="-320" y="-25.5" width="220" height="30" as="geometry" />
        </mxCell>
        <mxCell id="wpUrbpQFlTFq2Zsuffso-571" value="aggregator/aggregator.go&lt;br&gt;#tryGenerateBatchProof" style="whiteSpace=wrap;html=1;rounded=1;verticalAlign=top;movable=0;resizable=0;rotatable=0;deletable=0;editable=0;connectable=0;" parent="1" vertex="1">
          <mxGeometry x="-340" y="400" width="260" height="328" as="geometry" />
        </mxCell>
        <mxCell id="wpUrbpQFlTFq2Zsuffso-572" value="指示证明者为提供的输入生成批量证明。返回正在计算的证明的ID" style="rounded=1;whiteSpace=wrap;html=1;movable=0;resizable=0;rotatable=0;deletable=0;editable=0;connectable=0;" parent="1" vertex="1">
          <mxGeometry x="-320" y="520" width="220" height="30" as="geometry" />
        </mxCell>
        <mxCell id="wpUrbpQFlTFq2Zsuffso-573" value="buildInputProver，构建证明输入参数" style="rounded=1;whiteSpace=wrap;html=1;movable=0;resizable=0;rotatable=0;deletable=0;editable=0;connectable=0;" parent="1" vertex="1">
          <mxGeometry x="-320" y="480" width="220" height="30" as="geometry" />
        </mxCell>
        <mxCell id="wpUrbpQFlTFq2Zsuffso-574" value="getAndLockBatchToProve，获取并锁定要证明的批次" style="rounded=1;whiteSpace=wrap;html=1;movable=0;resizable=0;rotatable=0;deletable=0;editable=0;connectable=0;" parent="1" vertex="1">
          <mxGeometry x="-320" y="440" width="220" height="30" as="geometry" />
        </mxCell>
        <mxCell id="wpUrbpQFlTFq2Zsuffso-575" value="最终证明还没有生成，更新批量证明" style="rounded=1;whiteSpace=wrap;html=1;movable=0;resizable=0;rotatable=0;deletable=0;editable=0;connectable=0;" parent="1" vertex="1">
          <mxGeometry x="-320" y="640" width="220" height="30" as="geometry" />
        </mxCell>
        <mxCell id="wpUrbpQFlTFq2Zsuffso-576" value="检查提供的证明是否有资格用于构建最终证明" style="rounded=1;whiteSpace=wrap;html=1;movable=0;resizable=0;rotatable=0;deletable=0;editable=0;connectable=0;" parent="1" vertex="1">
          <mxGeometry x="-320" y="600" width="220" height="30" as="geometry" />
        </mxCell>
        <mxCell id="wpUrbpQFlTFq2Zsuffso-577" value="等待证明者生成递归证明并将其返回" style="rounded=1;whiteSpace=wrap;html=1;movable=0;resizable=0;rotatable=0;deletable=0;editable=0;connectable=0;" parent="1" vertex="1">
          <mxGeometry x="-320" y="560" width="220" height="30" as="geometry" />
        </mxCell>
        <mxCell id="wpUrbpQFlTFq2Zsuffso-578" value="从存储中删除落在批号范围内的生成证明" style="rounded=1;whiteSpace=wrap;html=1;movable=0;resizable=0;rotatable=0;deletable=0;editable=0;connectable=0;" parent="1" vertex="1">
          <mxGeometry x="-320" y="680" width="220" height="30" as="geometry" />
        </mxCell>
        <mxCell id="wpUrbpQFlTFq2Zsuffso-579" value="aggregator/aggregator.go&lt;br&gt;#tryAggregateProofs" style="whiteSpace=wrap;html=1;rounded=1;verticalAlign=top;movable=0;resizable=0;rotatable=0;deletable=0;editable=0;connectable=0;" parent="1" vertex="1">
          <mxGeometry x="-340" y="108" width="260" height="245.5" as="geometry" />
        </mxCell>
        <mxCell id="wpUrbpQFlTFq2Zsuffso-580" value="通过删除2个聚合证明并存储新生成的递归证明来更新状态" style="rounded=1;whiteSpace=wrap;html=1;movable=0;resizable=0;rotatable=0;deletable=0;editable=0;connectable=0;" parent="1" vertex="1">
          <mxGeometry x="-320" y="228" width="220" height="30" as="geometry" />
        </mxCell>
        <mxCell id="wpUrbpQFlTFq2Zsuffso-581" value="等待证明者生成递归证明并将其返回" style="rounded=1;whiteSpace=wrap;html=1;movable=0;resizable=0;rotatable=0;deletable=0;editable=0;connectable=0;" parent="1" vertex="1">
          <mxGeometry x="-320" y="188" width="220" height="30" as="geometry" />
        </mxCell>
        <mxCell id="wpUrbpQFlTFq2Zsuffso-582" value="指示证明者从提供的两个输入生成聚合证明。返回正在计算的证明的ID" style="rounded=1;whiteSpace=wrap;html=1;movable=0;resizable=0;rotatable=0;deletable=0;editable=0;connectable=0;" parent="1" vertex="1">
          <mxGeometry x="-320" y="148" width="220" height="30" as="geometry" />
        </mxCell>
        <mxCell id="wpUrbpQFlTFq2Zsuffso-583" value="最终证明还没有生成，更新递归证明" style="rounded=1;whiteSpace=wrap;html=1;movable=0;resizable=0;rotatable=0;deletable=0;editable=0;connectable=0;" parent="1" vertex="1">
          <mxGeometry x="-320" y="308" width="220" height="30" as="geometry" />
        </mxCell>
        <mxCell id="wpUrbpQFlTFq2Zsuffso-584" value="状态是最新的，检查是否可以使用刚制作的证明发送最终证明" style="rounded=1;whiteSpace=wrap;html=1;movable=0;resizable=0;rotatable=0;deletable=0;editable=0;connectable=0;" parent="1" vertex="1">
          <mxGeometry x="-320" y="268" width="220" height="30" as="geometry" />
        </mxCell>
        <mxCell id="wpUrbpQFlTFq2Zsuffso-585" value="目前没有证明生成，检查是否有准备好验证的证明" style="rounded=1;whiteSpace=wrap;html=1;movable=0;resizable=0;rotatable=0;deletable=0;editable=0;connectable=0;" parent="1" vertex="1">
          <mxGeometry x="-320" y="-105.5" width="220" height="30" as="geometry" />
        </mxCell>
        <mxCell id="wpUrbpQFlTFq2Zsuffso-594" value="aggregator/aggregator.go&lt;br&gt;#sendFinalProof" style="whiteSpace=wrap;html=1;rounded=1;verticalAlign=top;movable=0;resizable=0;rotatable=0;deletable=0;editable=0;connectable=0;" parent="1" vertex="1">
          <mxGeometry x="-1087" y="364" width="260" height="286" as="geometry" />
        </mxCell>
        <mxCell id="wpUrbpQFlTFq2Zsuffso-595" value="&lt;font color=&quot;#4284f3&quot;&gt;向L1合约提交证明验证&lt;/font&gt;" style="rounded=1;whiteSpace=wrap;html=1;movable=0;resizable=0;rotatable=0;deletable=0;editable=0;connectable=0;locked=1;" parent="1" vertex="1">
          <mxGeometry x="-1067" y="484" width="220" height="30" as="geometry" />
        </mxCell>
        <mxCell id="wpUrbpQFlTFq2Zsuffso-596" value="获取给定编号的批次" style="rounded=1;whiteSpace=wrap;html=1;movable=0;resizable=0;rotatable=0;deletable=0;editable=0;connectable=0;" parent="1" vertex="1">
          <mxGeometry x="-1067" y="444" width="220" height="30" as="geometry" />
        </mxCell>
        <mxCell id="wpUrbpQFlTFq2Zsuffso-597" value="将verifyingProof变量设置为true表示正在进行证明验证" style="rounded=1;whiteSpace=wrap;html=1;movable=0;resizable=0;rotatable=0;deletable=0;editable=0;connectable=0;" parent="1" vertex="1">
          <mxGeometry x="-1067" y="404" width="220" height="30" as="geometry" />
        </mxCell>
        <mxCell id="wpUrbpQFlTFq2Zsuffso-598" value="将verifyingProof变量设置为false表示没有正在进行的证明验证" style="rounded=1;whiteSpace=wrap;html=1;movable=0;resizable=0;rotatable=0;deletable=0;editable=0;connectable=0;" parent="1" vertex="1">
          <mxGeometry x="-1067" y="604" width="220" height="30" as="geometry" />
        </mxCell>
        <mxCell id="wpUrbpQFlTFq2Zsuffso-599" value="更新超时以验证证明" style="rounded=1;whiteSpace=wrap;html=1;movable=0;resizable=0;rotatable=0;deletable=0;editable=0;connectable=0;" parent="1" vertex="1">
          <mxGeometry x="-1067" y="564" width="220" height="30" as="geometry" />
        </mxCell>
        <mxCell id="wpUrbpQFlTFq2Zsuffso-600" value="在开始下一个周期之前处理受监控的批次验证" style="rounded=1;whiteSpace=wrap;html=1;movable=0;resizable=0;rotatable=0;deletable=0;editable=0;connectable=0;" parent="1" vertex="1">
          <mxGeometry x="-1067" y="524" width="220" height="30" as="geometry" />
        </mxCell>
        <mxCell id="wpUrbpQFlTFq2Zsuffso-602" value="aggregator/aggregator.go&lt;br&gt;#cleanupLockedProofs" style="whiteSpace=wrap;html=1;rounded=1;verticalAlign=top;movable=0;resizable=0;rotatable=0;deletable=0;editable=0;connectable=0;" parent="1" vertex="1">
          <mxGeometry x="-1087" y="262" width="260" height="82" as="geometry" />
        </mxCell>
        <mxCell id="wpUrbpQFlTFq2Zsuffso-603" value="从存储中删除锁定在生成状态并且超过设定阈值的证明" style="rounded=1;whiteSpace=wrap;html=1;movable=0;resizable=0;rotatable=0;deletable=0;editable=0;connectable=0;" parent="1" vertex="1">
          <mxGeometry x="-1067" y="302" width="220" height="30" as="geometry" />
        </mxCell>
        <mxCell id="wpUrbpQFlTFq2Zsuffso-608" value="sequencer/sequencer.go&lt;br&gt;#isSynced" style="whiteSpace=wrap;html=1;rounded=1;verticalAlign=top;movable=0;resizable=0;rotatable=0;deletable=0;editable=0;connectable=0;" parent="1" vertex="1">
          <mxGeometry x="-1087" y="781" width="260" height="42" as="geometry" />
        </mxCell>
        <mxCell id="wpUrbpQFlTFq2Zsuffso-609" value="sequencer/sequencer.go&lt;br&gt;#Start" style="whiteSpace=wrap;html=1;rounded=1;verticalAlign=top;movable=0;resizable=0;rotatable=0;deletable=0;editable=0;connectable=0;" parent="1" vertex="1">
          <mxGeometry x="-1470" y="1867.25" width="260" height="326" as="geometry" />
        </mxCell>
        <mxCell id="wpUrbpQFlTFq2Zsuffso-610" value="" style="html=1;entryX=0.002;entryY=0.5;entryDx=0;entryDy=0;entryPerimeter=0;exitX=0.998;exitY=0.495;exitDx=0;exitDy=0;exitPerimeter=0;edgeStyle=orthogonalEdgeStyle;movable=0;resizable=0;rotatable=0;deletable=0;editable=0;connectable=0;" parent="1" source="wpUrbpQFlTFq2Zsuffso-611" target="wpUrbpQFlTFq2Zsuffso-626" edge="1">
          <mxGeometry relative="1" as="geometry" />
        </mxCell>
        <mxCell id="wpUrbpQFlTFq2Zsuffso-611" value="启动dbManager协程" style="rounded=1;whiteSpace=wrap;html=1;movable=0;resizable=0;rotatable=0;deletable=0;editable=0;connectable=0;" parent="1" vertex="1">
          <mxGeometry x="-1450" y="1945.25" width="220" height="30" as="geometry" />
        </mxCell>
        <mxCell id="wpUrbpQFlTFq2Zsuffso-612" style="html=1;exitX=1;exitY=0.5;exitDx=0;exitDy=0;entryX=0;entryY=0.5;entryDx=0;entryDy=0;movable=0;resizable=0;rotatable=0;deletable=0;editable=0;connectable=0;edgeStyle=orthogonalEdgeStyle;" parent="1" source="wpUrbpQFlTFq2Zsuffso-613" target="wpUrbpQFlTFq2Zsuffso-608" edge="1">
          <mxGeometry relative="1" as="geometry">
            <Array as="points">
              <mxPoint x="-1200" y="1920" />
              <mxPoint x="-1200" y="802" />
            </Array>
          </mxGeometry>
        </mxCell>
        <mxCell id="wpUrbpQFlTFq2Zsuffso-613" value="判断是否同步完成" style="rounded=1;whiteSpace=wrap;html=1;movable=0;resizable=0;rotatable=0;deletable=0;editable=0;connectable=0;" parent="1" vertex="1">
          <mxGeometry x="-1450" y="1905.25" width="220" height="30" as="geometry" />
        </mxCell>
        <mxCell id="wpUrbpQFlTFq2Zsuffso-614" value="cmd/run.go&lt;br&gt;#createSequencer" style="whiteSpace=wrap;html=1;rounded=1;verticalAlign=top;movable=0;resizable=0;rotatable=0;deletable=0;editable=0;connectable=0;" parent="1" vertex="1">
          <mxGeometry x="-1470" y="706.5" width="260" height="97.5" as="geometry" />
        </mxCell>
        <mxCell id="wpUrbpQFlTFq2Zsuffso-615" value="启动定序器" style="rounded=1;whiteSpace=wrap;html=1;movable=0;resizable=0;rotatable=0;deletable=0;editable=0;connectable=0;" parent="1" vertex="1">
          <mxGeometry x="-1450" y="756.5" width="220" height="30" as="geometry" />
        </mxCell>
        <mxCell id="wpUrbpQFlTFq2Zsuffso-616" style="edgeStyle=orthogonalEdgeStyle;html=1;exitX=0.502;exitY=1;exitDx=0;exitDy=0;entryX=0.5;entryY=0;entryDx=0;entryDy=0;movable=0;resizable=0;rotatable=0;deletable=0;editable=0;connectable=0;exitPerimeter=0;" parent="1" source="wpUrbpQFlTFq2Zsuffso-615" target="wpUrbpQFlTFq2Zsuffso-609" edge="1">
          <mxGeometry relative="1" as="geometry">
            <mxPoint x="-1340" y="906.5" as="sourcePoint" />
          </mxGeometry>
        </mxCell>
        <mxCell id="wpUrbpQFlTFq2Zsuffso-617" value="" style="html=1;fontColor=#FF0000;entryX=0.003;entryY=0.501;entryDx=0;entryDy=0;entryPerimeter=0;exitX=1.005;exitY=0.5;exitDx=0;exitDy=0;exitPerimeter=0;movable=0;resizable=0;rotatable=0;deletable=0;editable=0;connectable=0;" parent="1" source="wpUrbpQFlTFq2Zsuffso-618" target="wpUrbpQFlTFq2Zsuffso-672" edge="1">
          <mxGeometry relative="1" as="geometry">
            <mxPoint x="-1087.52" y="1087" as="targetPoint" />
          </mxGeometry>
        </mxCell>
        <mxCell id="wpUrbpQFlTFq2Zsuffso-618" value="启动关闭信号管理器" style="rounded=1;whiteSpace=wrap;html=1;movable=0;resizable=0;rotatable=0;deletable=0;editable=0;connectable=0;" parent="1" vertex="1">
          <mxGeometry x="-1450" y="2025.25" width="220" height="30" as="geometry" />
        </mxCell>
        <mxCell id="wpUrbpQFlTFq2Zsuffso-619" value="" style="html=1;fontColor=#FF0000;entryX=-0.003;entryY=0.497;entryDx=0;entryDy=0;entryPerimeter=0;exitX=0.998;exitY=0.495;exitDx=0;exitDy=0;exitPerimeter=0;edgeStyle=orthogonalEdgeStyle;movable=0;resizable=0;rotatable=0;deletable=0;editable=0;connectable=0;" parent="1" source="wpUrbpQFlTFq2Zsuffso-620" target="wpUrbpQFlTFq2Zsuffso-668" edge="1">
          <mxGeometry relative="1" as="geometry">
            <mxPoint x="-1086.48" y="987.0819999999999" as="targetPoint" />
            <Array as="points">
              <mxPoint x="-1120" y="2000" />
              <mxPoint x="-1120" y="1500" />
            </Array>
          </mxGeometry>
        </mxCell>
        <mxCell id="wpUrbpQFlTFq2Zsuffso-620" value="启动终结器" style="rounded=1;whiteSpace=wrap;html=1;movable=0;resizable=0;rotatable=0;deletable=0;editable=0;connectable=0;" parent="1" vertex="1">
          <mxGeometry x="-1450" y="1985.25" width="220" height="30" as="geometry" />
        </mxCell>
        <mxCell id="wpUrbpQFlTFq2Zsuffso-621" value="" style="html=1;fontColor=#FF0000;entryX=0.002;entryY=0.498;entryDx=0;entryDy=0;entryPerimeter=0;exitX=0.999;exitY=0.498;exitDx=0;exitDy=0;exitPerimeter=0;edgeStyle=orthogonalEdgeStyle;movable=0;resizable=0;rotatable=0;deletable=0;editable=0;connectable=0;" parent="1" source="wpUrbpQFlTFq2Zsuffso-663" target="wpUrbpQFlTFq2Zsuffso-654" edge="1">
          <mxGeometry relative="1" as="geometry" />
        </mxCell>
        <mxCell id="wpUrbpQFlTFq2Zsuffso-684" value="" style="edgeStyle=orthogonalEdgeStyle;html=1;fontColor=#FFFF00;entryX=-0.005;entryY=0.5;entryDx=0;entryDy=0;entryPerimeter=0;exitX=1.001;exitY=0.502;exitDx=0;exitDy=0;exitPerimeter=0;movable=0;resizable=0;rotatable=0;deletable=0;editable=0;connectable=0;" parent="1" source="wpUrbpQFlTFq2Zsuffso-622" target="wpUrbpQFlTFq2Zsuffso-676" edge="1">
          <mxGeometry relative="1" as="geometry">
            <Array as="points">
              <mxPoint x="-1120" y="2080" />
              <mxPoint x="-1120" y="2246" />
            </Array>
          </mxGeometry>
        </mxCell>
        <mxCell id="wpUrbpQFlTFq2Zsuffso-622" value="监控旧交易并处理" style="rounded=1;whiteSpace=wrap;html=1;movable=0;resizable=0;rotatable=0;deletable=0;editable=0;connectable=0;" parent="1" vertex="1">
          <mxGeometry x="-1450" y="2065.25" width="220" height="30" as="geometry" />
        </mxCell>
        <mxCell id="wpUrbpQFlTFq2Zsuffso-626" value="sequencer/dbmanager&lt;br&gt;#Start" style="whiteSpace=wrap;html=1;rounded=1;verticalAlign=top;movable=0;resizable=0;rotatable=0;deletable=0;editable=0;connectable=0;" parent="1" vertex="1">
          <mxGeometry x="-1087" y="839" width="260" height="161" as="geometry" />
        </mxCell>
        <mxCell id="wpUrbpQFlTFq2Zsuffso-654" value="sequencer/sequencesender.go&lt;br&gt;#tryToSendSequence" style="whiteSpace=wrap;html=1;rounded=1;verticalAlign=top;movable=0;resizable=0;rotatable=0;deletable=0;editable=0;connectable=0;" parent="1" vertex="1">
          <mxGeometry x="-1087" y="2343" width="260" height="249" as="geometry" />
        </mxCell>
        <mxCell id="wpUrbpQFlTFq2Zsuffso-656" value="检查同步器是否是最新的" style="rounded=1;whiteSpace=wrap;html=1;movable=0;resizable=0;rotatable=0;deletable=0;editable=0;connectable=0;" parent="1" vertex="1">
          <mxGeometry x="-1067" y="2423" width="220" height="30" as="geometry" />
        </mxCell>
        <mxCell id="wpUrbpQFlTFq2Zsuffso-657" value="在开始下一个循环之前处理监控的交易" style="rounded=1;whiteSpace=wrap;html=1;movable=0;resizable=0;rotatable=0;deletable=0;editable=0;connectable=0;" parent="1" vertex="1">
          <mxGeometry x="-1067" y="2383" width="220" height="30" as="geometry" />
        </mxCell>
        <mxCell id="wpUrbpQFlTFq2Zsuffso-658" value="将序列添加到ethTxManager，ethTxManager放置要发送和监控的交易" style="rounded=1;whiteSpace=wrap;html=1;movable=0;resizable=0;rotatable=0;deletable=0;editable=0;connectable=0;" parent="1" vertex="1">
          <mxGeometry x="-1067" y="2543" width="220" height="30" as="geometry" />
        </mxCell>
        <mxCell id="wpUrbpQFlTFq2Zsuffso-784" value="" style="edgeStyle=none;html=1;fontColor=#FFFF00;entryX=-0.001;entryY=0.498;entryDx=0;entryDy=0;entryPerimeter=0;movable=0;resizable=0;rotatable=0;deletable=0;editable=0;connectable=0;" parent="1" source="wpUrbpQFlTFq2Zsuffso-659" target="wpUrbpQFlTFq2Zsuffso-781" edge="1">
          <mxGeometry relative="1" as="geometry" />
        </mxCell>
        <mxCell id="wpUrbpQFlTFq2Zsuffso-659" value="构建要发送到智能合约函数SequenceBatches的[]bytes数据并发送" style="rounded=1;whiteSpace=wrap;html=1;movable=0;resizable=0;rotatable=0;deletable=0;editable=0;connectable=0;" parent="1" vertex="1">
          <mxGeometry x="-1067" y="2503" width="220" height="30" as="geometry" />
        </mxCell>
        <mxCell id="wpUrbpQFlTFq2Zsuffso-660" value="检查是否应该将序列发送到L1" style="rounded=1;whiteSpace=wrap;html=1;movable=0;resizable=0;rotatable=0;deletable=0;editable=0;connectable=0;" parent="1" vertex="1">
          <mxGeometry x="-1067" y="2463" width="220" height="30" as="geometry" />
        </mxCell>
        <mxCell id="wpUrbpQFlTFq2Zsuffso-663" value="尝试发送批次" style="rounded=1;whiteSpace=wrap;html=1;movable=0;resizable=0;rotatable=0;deletable=0;editable=0;connectable=0;" parent="1" vertex="1">
          <mxGeometry x="-1450" y="2105.25" width="220" height="30" as="geometry" />
        </mxCell>
        <mxCell id="wpUrbpQFlTFq2Zsuffso-682" value="" style="edgeStyle=orthogonalEdgeStyle;html=1;fontColor=#FFFF00;entryX=-0.002;entryY=0.497;entryDx=0;entryDy=0;entryPerimeter=0;exitX=0.998;exitY=0.502;exitDx=0;exitDy=0;exitPerimeter=0;movable=0;resizable=0;rotatable=0;deletable=0;editable=0;connectable=0;" parent="1" source="wpUrbpQFlTFq2Zsuffso-664" target="wpUrbpQFlTFq2Zsuffso-680" edge="1">
          <mxGeometry relative="1" as="geometry">
            <Array as="points">
              <mxPoint x="-1200" y="2160" />
              <mxPoint x="-1200" y="2632" />
            </Array>
          </mxGeometry>
        </mxCell>
        <mxCell id="wpUrbpQFlTFq2Zsuffso-664" value="将worker中太旧的交易过期" style="rounded=1;whiteSpace=wrap;html=1;movable=0;resizable=0;rotatable=0;deletable=0;editable=0;connectable=0;" parent="1" vertex="1">
          <mxGeometry x="-1450" y="2145.25" width="220" height="30" as="geometry" />
        </mxCell>
        <mxCell id="wpUrbpQFlTFq2Zsuffso-665" value="不断从池中加载交易" style="rounded=1;whiteSpace=wrap;html=1;movable=0;resizable=0;rotatable=0;deletable=0;editable=0;connectable=0;" parent="1" vertex="1">
          <mxGeometry x="-1067" y="880" width="220" height="30" as="geometry" />
        </mxCell>
        <mxCell id="wpUrbpQFlTFq2Zsuffso-690" value="" style="edgeStyle=none;html=1;fontColor=#FFFF00;entryX=-0.003;entryY=0.498;entryDx=0;entryDy=0;entryPerimeter=0;exitX=0.995;exitY=0.497;exitDx=0;exitDy=0;exitPerimeter=0;movable=0;resizable=0;rotatable=0;deletable=0;editable=0;connectable=0;" parent="1" source="wpUrbpQFlTFq2Zsuffso-666" target="wpUrbpQFlTFq2Zsuffso-685" edge="1">
          <mxGeometry relative="1" as="geometry" />
        </mxCell>
        <mxCell id="wpUrbpQFlTFq2Zsuffso-666" value="将tx存储到状态中并更改它在池中的状态" style="rounded=1;whiteSpace=wrap;html=1;movable=0;resizable=0;rotatable=0;deletable=0;editable=0;connectable=0;" parent="1" vertex="1">
          <mxGeometry x="-1067" y="960" width="220" height="30" as="geometry" />
        </mxCell>
        <mxCell id="wpUrbpQFlTFq2Zsuffso-667" value="检查是否发生重组" style="rounded=1;whiteSpace=wrap;html=1;movable=0;resizable=0;rotatable=0;deletable=0;editable=0;connectable=0;" parent="1" vertex="1">
          <mxGeometry x="-1067" y="920" width="220" height="30" as="geometry" />
        </mxCell>
        <mxCell id="wpUrbpQFlTFq2Zsuffso-668" value="sequencer/finalizer.go&lt;br&gt;#Start" style="whiteSpace=wrap;html=1;rounded=1;verticalAlign=top;movable=0;resizable=0;rotatable=0;deletable=0;editable=0;connectable=0;" parent="1" vertex="1">
          <mxGeometry x="-1087" y="1440" width="260" height="121" as="geometry" />
        </mxCell>
        <mxCell id="wpUrbpQFlTFq2Zsuffso-711" value="" style="edgeStyle=orthogonalEdgeStyle;html=1;fontColor=#FF0000;entryX=0;entryY=0.499;entryDx=0;entryDy=0;entryPerimeter=0;exitX=1;exitY=0.504;exitDx=0;exitDy=0;exitPerimeter=0;movable=0;resizable=0;rotatable=0;deletable=0;editable=0;connectable=0;" parent="1" source="wpUrbpQFlTFq2Zsuffso-669" target="wpUrbpQFlTFq2Zsuffso-695" edge="1">
          <mxGeometry relative="1" as="geometry" />
        </mxCell>
        <mxCell id="wpUrbpQFlTFq2Zsuffso-669" value="关闭信号接收器" style="rounded=1;whiteSpace=wrap;html=1;movable=0;resizable=0;rotatable=0;deletable=0;editable=0;connectable=0;" parent="1" vertex="1">
          <mxGeometry x="-1067" y="1481" width="220" height="30" as="geometry" />
        </mxCell>
        <mxCell id="wpUrbpQFlTFq2Zsuffso-712" value="" style="edgeStyle=orthogonalEdgeStyle;html=1;fontColor=#FF0000;entryX=0.002;entryY=0.502;entryDx=0;entryDy=0;entryPerimeter=0;exitX=1;exitY=0.504;exitDx=0;exitDy=0;exitPerimeter=0;movable=0;resizable=0;rotatable=0;deletable=0;editable=0;connectable=0;" parent="1" source="wpUrbpQFlTFq2Zsuffso-671" target="wpUrbpQFlTFq2Zsuffso-703" edge="1">
          <mxGeometry relative="1" as="geometry" />
        </mxCell>
        <mxCell id="wpUrbpQFlTFq2Zsuffso-671" value="处理交易并完成批次" style="rounded=1;whiteSpace=wrap;html=1;movable=0;resizable=0;rotatable=0;deletable=0;editable=0;connectable=0;" parent="1" vertex="1">
          <mxGeometry x="-1067" y="1521" width="220" height="30" as="geometry" />
        </mxCell>
        <mxCell id="wpUrbpQFlTFq2Zsuffso-672" value="sequencer/closingsignalsmanager.go&lt;br&gt;#Start" style="whiteSpace=wrap;html=1;rounded=1;verticalAlign=top;movable=0;resizable=0;rotatable=0;deletable=0;editable=0;connectable=0;" parent="1" vertex="1">
          <mxGeometry x="-1087" y="1960" width="260" height="161" as="geometry" />
        </mxCell>
        <mxCell id="wpUrbpQFlTFq2Zsuffso-776" value="" style="edgeStyle=orthogonalEdgeStyle;html=1;fontColor=#FF0000;entryX=-0.002;entryY=0.498;entryDx=0;entryDy=0;entryPerimeter=0;exitX=1;exitY=0.495;exitDx=0;exitDy=0;exitPerimeter=0;movable=0;resizable=0;rotatable=0;deletable=0;editable=0;connectable=0;" parent="1" source="wpUrbpQFlTFq2Zsuffso-673" target="wpUrbpQFlTFq2Zsuffso-766" edge="1">
          <mxGeometry relative="1" as="geometry" />
        </mxCell>
        <mxCell id="wpUrbpQFlTFq2Zsuffso-673" value="定时检查强制批次" style="rounded=1;whiteSpace=wrap;html=1;movable=0;resizable=0;rotatable=0;deletable=0;editable=0;connectable=0;" parent="1" vertex="1">
          <mxGeometry x="-1067" y="2001" width="220" height="30" as="geometry" />
        </mxCell>
        <mxCell id="wpUrbpQFlTFq2Zsuffso-780" value="" style="edgeStyle=orthogonalEdgeStyle;html=1;fontColor=#FF0000;entryX=0;entryY=0.53;entryDx=0;entryDy=0;entryPerimeter=0;exitX=0.998;exitY=0.5;exitDx=0;exitDy=0;exitPerimeter=0;movable=0;resizable=0;rotatable=0;deletable=0;editable=0;connectable=0;" parent="1" source="wpUrbpQFlTFq2Zsuffso-674" target="wpUrbpQFlTFq2Zsuffso-773" edge="1">
          <mxGeometry relative="1" as="geometry" />
        </mxCell>
        <mxCell id="wpUrbpQFlTFq2Zsuffso-674" value="定时检查L1提交超时" style="rounded=1;whiteSpace=wrap;html=1;movable=0;resizable=0;rotatable=0;deletable=0;editable=0;connectable=0;" parent="1" vertex="1">
          <mxGeometry x="-1067" y="2081" width="220" height="30" as="geometry" />
        </mxCell>
        <mxCell id="wpUrbpQFlTFq2Zsuffso-779" value="" style="edgeStyle=none;html=1;fontColor=#FF0000;entryX=0.006;entryY=0.568;entryDx=0;entryDy=0;entryPerimeter=0;exitX=0.995;exitY=0.495;exitDx=0;exitDy=0;exitPerimeter=0;movable=0;resizable=0;rotatable=0;deletable=0;editable=0;connectable=0;" parent="1" source="wpUrbpQFlTFq2Zsuffso-675" target="wpUrbpQFlTFq2Zsuffso-770" edge="1">
          <mxGeometry relative="1" as="geometry" />
        </mxCell>
        <mxCell id="wpUrbpQFlTFq2Zsuffso-675" value="定时检查Global Exit Root更新" style="rounded=1;whiteSpace=wrap;html=1;movable=0;resizable=0;rotatable=0;deletable=0;editable=0;connectable=0;" parent="1" vertex="1">
          <mxGeometry x="-1067" y="2041" width="220" height="30" as="geometry" />
        </mxCell>
        <mxCell id="wpUrbpQFlTFq2Zsuffso-676" value="sequencer/sequencer.go&lt;br&gt;#trackOldTxs" style="whiteSpace=wrap;html=1;rounded=1;verticalAlign=top;movable=0;resizable=0;rotatable=0;deletable=0;editable=0;connectable=0;" parent="1" vertex="1">
          <mxGeometry x="-1087" y="2224" width="260" height="44.5" as="geometry" />
        </mxCell>
        <mxCell id="wpUrbpQFlTFq2Zsuffso-680" value="sequencer/worker.go#ExpireTransactions&lt;br&gt;pool/pool.go#UpdateTxStatus" style="whiteSpace=wrap;html=1;rounded=1;verticalAlign=top;movable=0;resizable=0;rotatable=0;deletable=0;editable=0;connectable=0;" parent="1" vertex="1">
          <mxGeometry x="-1087" y="2612" width="260" height="40" as="geometry" />
        </mxCell>
        <mxCell id="wpUrbpQFlTFq2Zsuffso-685" value="aggregator/aggregator.go&lt;br&gt;#133" style="whiteSpace=wrap;html=1;rounded=1;verticalAlign=top;movable=0;resizable=0;rotatable=0;deletable=0;editable=0;connectable=0;" parent="1" vertex="1">
          <mxGeometry x="-747" y="810" width="260" height="332" as="geometry" />
        </mxCell>
        <mxCell id="wpUrbpQFlTFq2Zsuffso-686" value="检查是否发生重组" style="rounded=1;whiteSpace=wrap;html=1;movable=0;resizable=0;rotatable=0;deletable=0;editable=0;connectable=0;" parent="1" vertex="1">
          <mxGeometry x="-727" y="930" width="220" height="30" as="geometry" />
        </mxCell>
        <mxCell id="wpUrbpQFlTFq2Zsuffso-687" value="获取数据&lt;br&gt;&lt;font color=&quot;#ff0000&quot;&gt;txToStore := &amp;lt;-d.txsStore.Ch&lt;/font&gt;" style="rounded=1;whiteSpace=wrap;html=1;movable=0;resizable=0;rotatable=0;deletable=0;editable=0;connectable=0;" parent="1" vertex="1">
          <mxGeometry x="-727" y="890" width="220" height="30" as="geometry" />
        </mxCell>
        <mxCell id="wpUrbpQFlTFq2Zsuffso-688" value="循环处理" style="rounded=1;whiteSpace=wrap;html=1;movable=0;resizable=0;rotatable=0;deletable=0;editable=0;connectable=0;" parent="1" vertex="1">
          <mxGeometry x="-727" y="850" width="220" height="30" as="geometry" />
        </mxCell>
        <mxCell id="wpUrbpQFlTFq2Zsuffso-691" value="更新批次L2数据" style="rounded=1;whiteSpace=wrap;html=1;movable=0;resizable=0;rotatable=0;deletable=0;editable=0;connectable=0;" parent="1" vertex="1">
          <mxGeometry x="-727" y="1050" width="220" height="30" as="geometry" />
        </mxCell>
        <mxCell id="wpUrbpQFlTFq2Zsuffso-692" value="在状态中存储一笔交易" style="rounded=1;whiteSpace=wrap;html=1;movable=0;resizable=0;rotatable=0;deletable=0;editable=0;connectable=0;" parent="1" vertex="1">
          <mxGeometry x="-727" y="1010" width="220" height="30" as="geometry" />
        </mxCell>
        <mxCell id="wpUrbpQFlTFq2Zsuffso-693" value="刷新状态数据库" style="rounded=1;whiteSpace=wrap;html=1;movable=0;resizable=0;rotatable=0;deletable=0;editable=0;connectable=0;" parent="1" vertex="1">
          <mxGeometry x="-727" y="970" width="220" height="30" as="geometry" />
        </mxCell>
        <mxCell id="wpUrbpQFlTFq2Zsuffso-694" value="将交易池中对应交易状态更改为选中" style="rounded=1;whiteSpace=wrap;html=1;movable=0;resizable=0;rotatable=0;deletable=0;editable=0;connectable=0;" parent="1" vertex="1">
          <mxGeometry x="-727" y="1090" width="220" height="30" as="geometry" />
        </mxCell>
        <mxCell id="wpUrbpQFlTFq2Zsuffso-695" value="sequencer/finalizer.go&lt;br&gt;#listenForClosingSignals" style="whiteSpace=wrap;html=1;rounded=1;verticalAlign=top;movable=0;resizable=0;rotatable=0;deletable=0;editable=0;connectable=0;" parent="1" vertex="1">
          <mxGeometry x="-750" y="1287" width="260" height="210" as="geometry" />
        </mxCell>
        <mxCell id="wpUrbpQFlTFq2Zsuffso-734" value="" style="edgeStyle=orthogonalEdgeStyle;html=1;fontColor=#FF0000;entryX=-0.001;entryY=0.5;entryDx=0;entryDy=0;entryPerimeter=0;exitX=0.999;exitY=0.496;exitDx=0;exitDy=0;exitPerimeter=0;movable=0;resizable=0;rotatable=0;deletable=0;editable=0;connectable=0;" parent="1" source="wpUrbpQFlTFq2Zsuffso-696" target="wpUrbpQFlTFq2Zsuffso-721" edge="1">
          <mxGeometry relative="1" as="geometry">
            <Array as="points">
              <mxPoint x="-400" y="1422" />
              <mxPoint x="-400" y="1457" />
            </Array>
          </mxGeometry>
        </mxCell>
        <mxCell id="wpUrbpQFlTFq2Zsuffso-696" value="L2Reorg消息处理&lt;br&gt;&lt;font color=&quot;#ff0000&quot;&gt;&amp;lt;-f.closingSignalCh.L2ReorgCh&lt;/font&gt;" style="rounded=1;whiteSpace=wrap;html=1;movable=0;resizable=0;rotatable=0;deletable=0;editable=0;connectable=0;" parent="1" vertex="1">
          <mxGeometry x="-738" y="1407" width="238" height="30" as="geometry" />
        </mxCell>
        <mxCell id="wpUrbpQFlTFq2Zsuffso-732" value="" style="edgeStyle=orthogonalEdgeStyle;html=1;fontColor=#FF0000;entryX=0.003;entryY=0.502;entryDx=0;entryDy=0;entryPerimeter=0;exitX=0.999;exitY=0.504;exitDx=0;exitDy=0;exitPerimeter=0;movable=0;resizable=0;rotatable=0;deletable=0;editable=0;connectable=0;" parent="1" source="wpUrbpQFlTFq2Zsuffso-697" target="wpUrbpQFlTFq2Zsuffso-718" edge="1">
          <mxGeometry relative="1" as="geometry">
            <Array as="points">
              <mxPoint x="-400" y="1382" />
              <mxPoint x="-400" y="1352" />
            </Array>
          </mxGeometry>
        </mxCell>
        <mxCell id="wpUrbpQFlTFq2Zsuffso-697" value="GlobalExitRoot消息处理&lt;br&gt;&lt;font color=&quot;#ff0000&quot;&gt;ger := &amp;lt;-f.closingSignalCh.GERCh&lt;/font&gt;" style="rounded=1;whiteSpace=wrap;html=1;movable=0;resizable=0;rotatable=0;deletable=0;editable=0;connectable=0;" parent="1" vertex="1">
          <mxGeometry x="-738" y="1367" width="238" height="30" as="geometry" />
        </mxCell>
        <mxCell id="wpUrbpQFlTFq2Zsuffso-730" value="" style="edgeStyle=orthogonalEdgeStyle;html=1;fontColor=#FF0000;entryX=-0.004;entryY=0.5;entryDx=0;entryDy=0;entryPerimeter=0;exitX=0.998;exitY=0.496;exitDx=0;exitDy=0;exitPerimeter=0;movable=0;resizable=0;rotatable=0;deletable=0;editable=0;connectable=0;" parent="1" source="wpUrbpQFlTFq2Zsuffso-698" target="wpUrbpQFlTFq2Zsuffso-713" edge="1">
          <mxGeometry relative="1" as="geometry">
            <Array as="points">
              <mxPoint x="-440" y="1342" />
              <mxPoint x="-440" y="1245" />
            </Array>
          </mxGeometry>
        </mxCell>
        <mxCell id="wpUrbpQFlTFq2Zsuffso-698" value="ForcedBatch消息处理&lt;br&gt;&lt;font color=&quot;#ff0000&quot;&gt;fb := &amp;lt;-f.closingSignalCh.ForcedBatchCh&lt;/font&gt;" style="rounded=1;whiteSpace=wrap;html=1;movable=0;resizable=0;rotatable=0;deletable=0;editable=0;connectable=0;" parent="1" vertex="1">
          <mxGeometry x="-738" y="1327" width="238" height="30" as="geometry" />
        </mxCell>
        <mxCell id="wpUrbpQFlTFq2Zsuffso-736" value="" style="edgeStyle=orthogonalEdgeStyle;html=1;fontColor=#FF0000;entryX=-0.003;entryY=0.5;entryDx=0;entryDy=0;entryPerimeter=0;exitX=1;exitY=0.504;exitDx=0;exitDy=0;exitPerimeter=0;movable=0;resizable=0;rotatable=0;deletable=0;editable=0;connectable=0;" parent="1" source="wpUrbpQFlTFq2Zsuffso-701" target="wpUrbpQFlTFq2Zsuffso-724" edge="1">
          <mxGeometry relative="1" as="geometry">
            <Array as="points">
              <mxPoint x="-440" y="1462" />
              <mxPoint x="-440" y="1545" />
            </Array>
          </mxGeometry>
        </mxCell>
        <mxCell id="wpUrbpQFlTFq2Zsuffso-701" value="L1中太长时间没有批次消息处理&lt;br&gt;&lt;font color=&quot;#ff0000&quot;&gt;&amp;lt;-f.closingSignalCh.SendingToL1TimeoutCh&lt;/font&gt;" style="rounded=1;whiteSpace=wrap;html=1;movable=0;resizable=0;rotatable=0;deletable=0;editable=0;connectable=0;" parent="1" vertex="1">
          <mxGeometry x="-738" y="1447" width="240" height="30" as="geometry" />
        </mxCell>
        <mxCell id="wpUrbpQFlTFq2Zsuffso-703" value="sequencer/finalizer.go&lt;br&gt;#finalizeBatches" style="whiteSpace=wrap;html=1;rounded=1;verticalAlign=top;movable=0;resizable=0;rotatable=0;deletable=0;editable=0;connectable=0;" parent="1" vertex="1">
          <mxGeometry x="-747" y="1570.25" width="260" height="247.75" as="geometry" />
        </mxCell>
        <mxCell id="wpUrbpQFlTFq2Zsuffso-764" value="" style="edgeStyle=none;html=1;fontColor=#FF0000;entryX=0.002;entryY=0.496;entryDx=0;entryDy=0;entryPerimeter=0;exitX=0.997;exitY=0.501;exitDx=0;exitDy=0;exitPerimeter=0;movable=0;resizable=0;rotatable=0;deletable=0;editable=0;connectable=0;" parent="1" source="wpUrbpQFlTFq2Zsuffso-704" target="wpUrbpQFlTFq2Zsuffso-737" edge="1">
          <mxGeometry relative="1" as="geometry" />
        </mxCell>
        <mxCell id="wpUrbpQFlTFq2Zsuffso-704" value="tx不为空，执行单笔交易处理逻辑" style="rounded=1;whiteSpace=wrap;html=1;movable=0;resizable=0;rotatable=0;deletable=0;editable=0;connectable=0;" parent="1" vertex="1">
          <mxGeometry x="-727" y="1690.25" width="220" height="30" as="geometry" />
        </mxCell>
        <mxCell id="wpUrbpQFlTFq2Zsuffso-705" value="获取适合可用批次资源的最高效tx" style="rounded=1;whiteSpace=wrap;html=1;movable=0;resizable=0;rotatable=0;deletable=0;editable=0;connectable=0;" parent="1" vertex="1">
          <mxGeometry x="-727" y="1650.25" width="220" height="30" as="geometry" />
        </mxCell>
        <mxCell id="wpUrbpQFlTFq2Zsuffso-706" value="循环处理" style="rounded=1;whiteSpace=wrap;html=1;movable=0;resizable=0;rotatable=0;deletable=0;editable=0;connectable=0;" parent="1" vertex="1">
          <mxGeometry x="-727" y="1610.25" width="220" height="30" as="geometry" />
        </mxCell>
        <mxCell id="wpUrbpQFlTFq2Zsuffso-708" value="遇到任何关闭信号的最后期限或者批次交易数量已满或者当前批次剩余资源在最有效时刻关闭批的约束阈值范围内" style="rounded=1;whiteSpace=wrap;html=1;movable=0;resizable=0;rotatable=0;deletable=0;editable=0;connectable=0;" parent="1" vertex="1">
          <mxGeometry x="-727" y="1770.25" width="220" height="30" as="geometry" />
        </mxCell>
        <mxCell id="wpUrbpQFlTFq2Zsuffso-709" value="tx为空，等待新tx" style="rounded=1;whiteSpace=wrap;html=1;movable=0;resizable=0;rotatable=0;deletable=0;editable=0;connectable=0;" parent="1" vertex="1">
          <mxGeometry x="-727" y="1730.25" width="220" height="30" as="geometry" />
        </mxCell>
        <mxCell id="wpUrbpQFlTFq2Zsuffso-713" value="" style="whiteSpace=wrap;html=1;rounded=1;verticalAlign=top;movable=0;resizable=0;rotatable=0;deletable=0;editable=0;connectable=0;" parent="1" vertex="1">
          <mxGeometry x="-340" y="1200" width="260" height="90" as="geometry" />
        </mxCell>
        <mxCell id="wpUrbpQFlTFq2Zsuffso-715" value="如果下一批期限时间未设置则进行设置" style="rounded=1;whiteSpace=wrap;html=1;movable=0;resizable=0;rotatable=0;deletable=0;editable=0;connectable=0;" parent="1" vertex="1">
          <mxGeometry x="-328" y="1250" width="238" height="30" as="geometry" />
        </mxCell>
        <mxCell id="wpUrbpQFlTFq2Zsuffso-716" value="更新下一批强制批次" style="rounded=1;whiteSpace=wrap;html=1;movable=0;resizable=0;rotatable=0;deletable=0;editable=0;connectable=0;" parent="1" vertex="1">
          <mxGeometry x="-328" y="1210" width="238" height="30" as="geometry" />
        </mxCell>
        <mxCell id="wpUrbpQFlTFq2Zsuffso-718" value="" style="whiteSpace=wrap;html=1;rounded=1;verticalAlign=top;movable=0;resizable=0;rotatable=0;deletable=0;editable=0;connectable=0;" parent="1" vertex="1">
          <mxGeometry x="-339" y="1304" width="260" height="95" as="geometry" />
        </mxCell>
        <mxCell id="wpUrbpQFlTFq2Zsuffso-719" value="如果下一个GlobalExitRoot期限时间未设置则进行设置" style="rounded=1;whiteSpace=wrap;html=1;movable=0;resizable=0;rotatable=0;deletable=0;editable=0;connectable=0;" parent="1" vertex="1">
          <mxGeometry x="-327" y="1359" width="238" height="30" as="geometry" />
        </mxCell>
        <mxCell id="wpUrbpQFlTFq2Zsuffso-720" value="更新下一个Global Exit Root" style="rounded=1;whiteSpace=wrap;html=1;movable=0;resizable=0;rotatable=0;deletable=0;editable=0;connectable=0;" parent="1" vertex="1">
          <mxGeometry x="-327" y="1319" width="238" height="30" as="geometry" />
        </mxCell>
        <mxCell id="wpUrbpQFlTFq2Zsuffso-721" value="" style="whiteSpace=wrap;html=1;rounded=1;verticalAlign=top;movable=0;resizable=0;rotatable=0;deletable=0;editable=0;connectable=0;" parent="1" vertex="1">
          <mxGeometry x="-338" y="1412" width="260" height="90" as="geometry" />
        </mxCell>
        <mxCell id="wpUrbpQFlTFq2Zsuffso-722" value="停止终结器并保存事件日志、进行日志输出" style="rounded=1;whiteSpace=wrap;html=1;movable=0;resizable=0;rotatable=0;deletable=0;editable=0;connectable=0;" parent="1" vertex="1">
          <mxGeometry x="-326" y="1462" width="238" height="30" as="geometry" />
        </mxCell>
        <mxCell id="wpUrbpQFlTFq2Zsuffso-723" value="设置handlingL2Reorg标志为true" style="rounded=1;whiteSpace=wrap;html=1;movable=0;resizable=0;rotatable=0;deletable=0;editable=0;connectable=0;" parent="1" vertex="1">
          <mxGeometry x="-326" y="1422" width="238" height="30" as="geometry" />
        </mxCell>
        <mxCell id="wpUrbpQFlTFq2Zsuffso-724" value="" style="whiteSpace=wrap;html=1;rounded=1;verticalAlign=top;movable=0;resizable=0;rotatable=0;deletable=0;editable=0;connectable=0;" parent="1" vertex="1">
          <mxGeometry x="-339" y="1515" width="260" height="60" as="geometry" />
        </mxCell>
        <mxCell id="wpUrbpQFlTFq2Zsuffso-726" value="如果下一个标志发送到L1的批期限时间未设置则进行设置" style="rounded=1;whiteSpace=wrap;html=1;movable=0;resizable=0;rotatable=0;deletable=0;editable=0;connectable=0;" parent="1" vertex="1">
          <mxGeometry x="-327" y="1532.25" width="238" height="30" as="geometry" />
        </mxCell>
        <mxCell id="wpUrbpQFlTFq2Zsuffso-737" value="sequencer/finalizer.go&lt;br&gt;#processTransaction" style="whiteSpace=wrap;html=1;rounded=1;verticalAlign=top;movable=0;resizable=0;rotatable=0;deletable=0;editable=0;connectable=0;" parent="1" vertex="1">
          <mxGeometry x="-337" y="1622.25" width="260" height="167.75" as="geometry" />
        </mxCell>
        <mxCell id="wpUrbpQFlTFq2Zsuffso-738" value="更新内存中的批次和processRequest" style="rounded=1;whiteSpace=wrap;html=1;movable=0;resizable=0;rotatable=0;deletable=0;editable=0;connectable=0;" parent="1" vertex="1">
          <mxGeometry x="-317" y="1742.25" width="220" height="30" as="geometry" />
        </mxCell>
        <mxCell id="wpUrbpQFlTFq2Zsuffso-756" value="" style="edgeStyle=orthogonalEdgeStyle;html=1;fontColor=#FF0000;entryX=-0.002;entryY=0.502;entryDx=0;entryDy=0;entryPerimeter=0;exitX=1.004;exitY=0.496;exitDx=0;exitDy=0;exitPerimeter=0;movable=0;resizable=0;rotatable=0;deletable=0;editable=0;connectable=0;" parent="1" source="wpUrbpQFlTFq2Zsuffso-739" target="wpUrbpQFlTFq2Zsuffso-743" edge="1">
          <mxGeometry relative="1" as="geometry" />
        </mxCell>
        <mxCell id="wpUrbpQFlTFq2Zsuffso-739" value="执行成功，处理交易执行结果" style="rounded=1;whiteSpace=wrap;html=1;movable=0;resizable=0;rotatable=0;deletable=0;editable=0;connectable=0;" parent="1" vertex="1">
          <mxGeometry x="-317" y="1702.25" width="220" height="30" as="geometry" />
        </mxCell>
        <mxCell id="wpUrbpQFlTFq2Zsuffso-761" value="" style="edgeStyle=orthogonalEdgeStyle;html=1;fontColor=#FF0000;entryX=0.004;entryY=0.496;entryDx=0;entryDy=0;entryPerimeter=0;exitX=1.001;exitY=0.496;exitDx=0;exitDy=0;exitPerimeter=0;movable=0;resizable=0;rotatable=0;deletable=0;editable=0;connectable=0;" parent="1" source="wpUrbpQFlTFq2Zsuffso-740" target="wpUrbpQFlTFq2Zsuffso-757" edge="1">
          <mxGeometry relative="1" as="geometry" />
        </mxCell>
        <mxCell id="wpUrbpQFlTFq2Zsuffso-740" value="&lt;font color=&quot;#66cc00&quot;&gt;调用Prover的executor&lt;/font&gt;处理一个批次" style="rounded=1;whiteSpace=wrap;html=1;movable=0;resizable=0;rotatable=0;deletable=0;editable=0;connectable=0;" parent="1" vertex="1">
          <mxGeometry x="-317" y="1662.25" width="220" height="30" as="geometry" />
        </mxCell>
        <mxCell id="wpUrbpQFlTFq2Zsuffso-743" value="sequencer/finalizer.go&lt;br&gt;#handleTxProcessResp" style="whiteSpace=wrap;html=1;rounded=1;verticalAlign=top;movable=0;resizable=0;rotatable=0;deletable=0;editable=0;connectable=0;" parent="1" vertex="1">
          <mxGeometry x="20" y="1691.25" width="260" height="167.75" as="geometry" />
        </mxCell>
        <mxCell id="wpUrbpQFlTFq2Zsuffso-744" value="存储已处理的交易，将其添加到批处理中并以原子方式更新池中的状态" style="rounded=1;whiteSpace=wrap;html=1;movable=0;resizable=0;rotatable=0;deletable=0;editable=0;connectable=0;" parent="1" vertex="1">
          <mxGeometry x="40" y="1811.25" width="220" height="30" as="geometry" />
        </mxCell>
        <mxCell id="wpUrbpQFlTFq2Zsuffso-755" value="" style="edgeStyle=none;html=1;fontColor=#FF0000;entryX=0;entryY=0.496;entryDx=0;entryDy=0;entryPerimeter=0;exitX=1;exitY=0.501;exitDx=0;exitDy=0;exitPerimeter=0;movable=0;resizable=0;rotatable=0;deletable=0;editable=0;connectable=0;" parent="1" source="wpUrbpQFlTFq2Zsuffso-745" target="wpUrbpQFlTFq2Zsuffso-749" edge="1">
          <mxGeometry relative="1" as="geometry">
            <mxPoint x="260" y="1786" as="sourcePoint" />
          </mxGeometry>
        </mxCell>
        <mxCell id="wpUrbpQFlTFq2Zsuffso-745" value="检查剩余资源，校验交易使用的资源是否少于批处理中的剩余资源" style="rounded=1;whiteSpace=wrap;html=1;movable=0;resizable=0;rotatable=0;deletable=0;editable=0;connectable=0;" parent="1" vertex="1">
          <mxGeometry x="40" y="1771.25" width="220" height="30" as="geometry" />
        </mxCell>
        <mxCell id="wpUrbpQFlTFq2Zsuffso-746" value="处理交易错误" style="rounded=1;whiteSpace=wrap;html=1;movable=0;resizable=0;rotatable=0;deletable=0;editable=0;connectable=0;" parent="1" vertex="1">
          <mxGeometry x="40" y="1731.25" width="220" height="30" as="geometry" />
        </mxCell>
        <mxCell id="wpUrbpQFlTFq2Zsuffso-749" value="sequencer/finalizer.go&lt;br&gt;#storeProcessedTx" style="whiteSpace=wrap;html=1;rounded=1;verticalAlign=top;movable=0;resizable=0;rotatable=0;deletable=0;editable=0;connectable=0;" parent="1" vertex="1">
          <mxGeometry x="370" y="1683.25" width="260" height="207.75" as="geometry" />
        </mxCell>
        <mxCell id="wpUrbpQFlTFq2Zsuffso-750" value="在Executor上执行成功tx后更新地址信息" style="rounded=1;whiteSpace=wrap;html=1;movable=0;resizable=0;rotatable=0;deletable=0;editable=0;connectable=0;" parent="1" vertex="1">
          <mxGeometry x="390" y="1803.25" width="220" height="30" as="geometry" />
        </mxCell>
        <mxCell id="wpUrbpQFlTFq2Zsuffso-751" value="从效率列表中删除交易" style="rounded=1;whiteSpace=wrap;html=1;movable=0;resizable=0;rotatable=0;deletable=0;editable=0;connectable=0;" parent="1" vertex="1">
          <mxGeometry x="390" y="1763.25" width="220" height="30" as="geometry" />
        </mxCell>
        <mxCell id="wpUrbpQFlTFq2Zsuffso-752" value="存储处理后的交易&lt;br&gt;&lt;font color=&quot;#ff0000&quot;&gt;f.txsStore.Ch &amp;lt;- &amp;amp;txToStore{...}&lt;/font&gt;" style="rounded=1;whiteSpace=wrap;html=1;movable=0;resizable=0;rotatable=0;deletable=0;editable=0;connectable=0;" parent="1" vertex="1">
          <mxGeometry x="390" y="1723.25" width="220" height="30" as="geometry" />
        </mxCell>
        <mxCell id="wpUrbpQFlTFq2Zsuffso-754" value="更新交易状态" style="rounded=1;whiteSpace=wrap;html=1;movable=0;resizable=0;rotatable=0;deletable=0;editable=0;connectable=0;" parent="1" vertex="1">
          <mxGeometry x="390" y="1843.25" width="220" height="30" as="geometry" />
        </mxCell>
        <mxCell id="wpUrbpQFlTFq2Zsuffso-757" value="state/state.go&lt;br&gt;#ProcessBatch" style="whiteSpace=wrap;html=1;rounded=1;verticalAlign=top;movable=0;resizable=0;rotatable=0;deletable=0;editable=0;connectable=0;" parent="1" vertex="1">
          <mxGeometry x="20" y="1579" width="260" height="88.75" as="geometry" />
        </mxCell>
        <mxCell id="wpUrbpQFlTFq2Zsuffso-758" value="使用grpc调用Prover的executor模块的ProcessBatch方法" style="rounded=1;whiteSpace=wrap;html=1;movable=0;resizable=0;rotatable=0;deletable=0;editable=0;connectable=0;" parent="1" vertex="1">
          <mxGeometry x="40" y="1620" width="220" height="30" as="geometry" />
        </mxCell>
        <mxCell id="wpUrbpQFlTFq2Zsuffso-766" value="sequencer/closingsignalsmanager.go&lt;br&gt;#checkForcedBatches" style="whiteSpace=wrap;html=1;rounded=1;verticalAlign=top;movable=0;resizable=0;rotatable=0;deletable=0;editable=0;connectable=0;" parent="1" vertex="1">
          <mxGeometry x="-747" y="1841.25" width="307" height="128.75" as="geometry" />
        </mxCell>
        <mxCell id="wpUrbpQFlTFq2Zsuffso-768" value="循环发送强制批次到&lt;font color=&quot;#ff0000&quot;&gt;channelc.closingSignalCh.ForcedBatchCh &amp;lt;- *forcedBatch&lt;/font&gt;" style="rounded=1;whiteSpace=wrap;html=1;movable=0;resizable=0;rotatable=0;deletable=0;editable=0;connectable=0;" parent="1" vertex="1">
          <mxGeometry x="-727" y="1921.25" width="267" height="30" as="geometry" />
        </mxCell>
        <mxCell id="wpUrbpQFlTFq2Zsuffso-769" value="获取待处理的强制批次" style="rounded=1;whiteSpace=wrap;html=1;movable=0;resizable=0;rotatable=0;deletable=0;editable=0;connectable=0;" parent="1" vertex="1">
          <mxGeometry x="-727" y="1881.25" width="267" height="30" as="geometry" />
        </mxCell>
        <mxCell id="wpUrbpQFlTFq2Zsuffso-770" value="sequencer/closingsignalsmanager.go&lt;br&gt;#checkGERUpdate" style="whiteSpace=wrap;html=1;rounded=1;verticalAlign=top;movable=0;resizable=0;rotatable=0;deletable=0;editable=0;connectable=0;" parent="1" vertex="1">
          <mxGeometry x="-747" y="1984" width="307" height="128.75" as="geometry" />
        </mxCell>
        <mxCell id="wpUrbpQFlTFq2Zsuffso-771" value="如果Global Exit Root已变化发送消息到channel&lt;br&gt;&lt;font color=&quot;#ff0000&quot;&gt;c.closingSignalCh.GERCh &amp;lt;- ger.GlobalExitRoot&lt;/font&gt;" style="rounded=1;whiteSpace=wrap;html=1;movable=0;resizable=0;rotatable=0;deletable=0;editable=0;connectable=0;" parent="1" vertex="1">
          <mxGeometry x="-727" y="2064" width="267" height="30" as="geometry" />
        </mxCell>
        <mxCell id="wpUrbpQFlTFq2Zsuffso-772" value="获取最新Global Exit Root" style="rounded=1;whiteSpace=wrap;html=1;movable=0;resizable=0;rotatable=0;deletable=0;editable=0;connectable=0;" parent="1" vertex="1">
          <mxGeometry x="-727" y="2024" width="267" height="30" as="geometry" />
        </mxCell>
        <mxCell id="wpUrbpQFlTFq2Zsuffso-773" value="sequencer/closingsignalsmanager.go&lt;br&gt;#checkSendToL1Timeout" style="whiteSpace=wrap;html=1;rounded=1;verticalAlign=top;movable=0;resizable=0;rotatable=0;deletable=0;editable=0;connectable=0;" parent="1" vertex="1">
          <mxGeometry x="-750" y="2130" width="310" height="128.75" as="geometry" />
        </mxCell>
        <mxCell id="wpUrbpQFlTFq2Zsuffso-774" value="如果超过配置的限定时间范围发送消息到channel&lt;br&gt;&lt;font color=&quot;#ff0000&quot;&gt;c.closingSignalCh.SendingToL1TimeoutCh &amp;lt;- true&lt;/font&gt;" style="rounded=1;whiteSpace=wrap;html=1;movable=0;resizable=0;rotatable=0;deletable=0;editable=0;connectable=0;" parent="1" vertex="1">
          <mxGeometry x="-730" y="2210" width="270" height="30" as="geometry" />
        </mxCell>
        <mxCell id="wpUrbpQFlTFq2Zsuffso-775" value="获取最后一次提交时间" style="rounded=1;whiteSpace=wrap;html=1;movable=0;resizable=0;rotatable=0;deletable=0;editable=0;connectable=0;" parent="1" vertex="1">
          <mxGeometry x="-730" y="2170" width="270" height="30" as="geometry" />
        </mxCell>
        <mxCell id="wpUrbpQFlTFq2Zsuffso-781" value="etherman/etherman.go&lt;br&gt;#sequenceBatches" style="whiteSpace=wrap;html=1;rounded=1;verticalAlign=top;movable=0;resizable=0;rotatable=0;deletable=0;editable=0;connectable=0;" parent="1" vertex="1">
          <mxGeometry x="-748.5" y="2475.25" width="310" height="85.75" as="geometry" />
        </mxCell>
        <mxCell id="wpUrbpQFlTFq2Zsuffso-783" value="&lt;font color=&quot;#4284f3&quot;&gt;调用合约方法sequenceBatches&lt;/font&gt;" style="rounded=1;whiteSpace=wrap;html=1;movable=0;resizable=0;rotatable=0;deletable=0;editable=0;connectable=0;locked=1;" parent="1" vertex="1">
          <mxGeometry x="-728.5" y="2515.25" width="270" height="30" as="geometry" />
        </mxCell>
        <mxCell id="wpUrbpQFlTFq2Zsuffso-787" value="cmd/run.go&lt;br&gt;#runSynchronizer" style="whiteSpace=wrap;html=1;rounded=1;verticalAlign=top;movable=1;resizable=1;rotatable=1;deletable=1;editable=1;connectable=1;" parent="1" vertex="1">
          <mxGeometry x="-2280" y="-54.5" width="260" height="87.5" as="geometry" />
        </mxCell>
        <mxCell id="wpUrbpQFlTFq2Zsuffso-806" value="" style="edgeStyle=orthogonalEdgeStyle;html=1;fontColor=#66CC00;entryX=0.501;entryY=-0.002;entryDx=0;entryDy=0;entryPerimeter=0;" parent="1" source="wpUrbpQFlTFq2Zsuffso-790" target="wpUrbpQFlTFq2Zsuffso-801" edge="1">
          <mxGeometry relative="1" as="geometry" />
        </mxCell>
        <mxCell id="wpUrbpQFlTFq2Zsuffso-790" value="启动同步器&lt;br&gt;创建同步器并开启同步" style="rounded=1;whiteSpace=wrap;html=1;movable=1;resizable=1;rotatable=1;deletable=1;editable=1;connectable=1;" parent="1" vertex="1">
          <mxGeometry x="-2260" y="-14.5" width="220" height="30" as="geometry" />
        </mxCell>
        <mxCell id="wpUrbpQFlTFq2Zsuffso-791" value="synchronizer/synchronizer.go&lt;br&gt;#processTrustedBatch" style="whiteSpace=wrap;html=1;rounded=1;verticalAlign=top;movable=1;resizable=1;rotatable=1;deletable=1;editable=1;connectable=1;" parent="1" vertex="1">
          <mxGeometry x="-2279" y="756.5" width="260" height="203.5" as="geometry" />
        </mxCell>
        <mxCell id="wpUrbpQFlTFq2Zsuffso-852" value="" style="edgeStyle=orthogonalEdgeStyle;html=1;fontColor=#66CC00;" parent="1" source="wpUrbpQFlTFq2Zsuffso-792" target="wpUrbpQFlTFq2Zsuffso-846" edge="1">
          <mxGeometry relative="1" as="geometry" />
        </mxCell>
        <mxCell id="wpUrbpQFlTFq2Zsuffso-792" value="由定序器用来将交易处理成一个开放的批次" style="rounded=1;whiteSpace=wrap;html=1;movable=1;resizable=1;rotatable=1;deletable=1;editable=1;connectable=1;" parent="1" vertex="1">
          <mxGeometry x="-2259" y="876.5" width="220" height="30" as="geometry" />
        </mxCell>
        <mxCell id="wpUrbpQFlTFq2Zsuffso-793" value="检查批次是否需要同步" style="rounded=1;whiteSpace=wrap;html=1;movable=1;resizable=1;rotatable=1;deletable=1;editable=1;connectable=1;" parent="1" vertex="1">
          <mxGeometry x="-2259" y="836.5" width="220" height="30" as="geometry" />
        </mxCell>
        <mxCell id="wpUrbpQFlTFq2Zsuffso-794" value="检查批次是否需要同步" style="rounded=1;whiteSpace=wrap;html=1;movable=1;resizable=1;rotatable=1;deletable=1;editable=1;connectable=1;" parent="1" vertex="1">
          <mxGeometry x="-2259" y="796.5" width="220" height="30" as="geometry" />
        </mxCell>
        <mxCell id="wpUrbpQFlTFq2Zsuffso-797" value="由定序器用于将已处理的交易添加到打开的批处理中" style="rounded=1;whiteSpace=wrap;html=1;movable=1;resizable=1;rotatable=1;deletable=1;editable=1;connectable=1;" parent="1" vertex="1">
          <mxGeometry x="-2259" y="916.5" width="220" height="30" as="geometry" />
        </mxCell>
        <mxCell id="wpUrbpQFlTFq2Zsuffso-801" value="aggregator/aggregator.go&lt;br&gt;#133" style="whiteSpace=wrap;html=1;rounded=1;verticalAlign=top;movable=1;resizable=1;rotatable=1;deletable=1;editable=1;connectable=1;" parent="1" vertex="1">
          <mxGeometry x="-2280" y="138" width="260" height="212" as="geometry" />
        </mxCell>
        <mxCell id="wpUrbpQFlTFq2Zsuffso-803" value="如果不是，则继续从检索到的以太坊块获取最新的同步块" style="rounded=1;whiteSpace=wrap;html=1;movable=1;resizable=1;rotatable=1;deletable=1;editable=1;connectable=1;" parent="1" vertex="1">
          <mxGeometry x="-2270" y="218" width="240" height="30" as="geometry" />
        </mxCell>
        <mxCell id="wpUrbpQFlTFq2Zsuffso-804" value="查询最后同步的以太坊区块lastEthereumBlock，如果没有从头开始同步" style="rounded=1;whiteSpace=wrap;html=1;movable=1;resizable=1;rotatable=1;deletable=1;editable=1;connectable=1;" parent="1" vertex="1">
          <mxGeometry x="-2270" y="178" width="240" height="30" as="geometry" />
        </mxCell>
        <mxCell id="wpUrbpQFlTFq2Zsuffso-807" value="如果不是，则继续从检索到的以太坊块获取最新的同步块" style="rounded=1;whiteSpace=wrap;html=1;movable=1;resizable=1;rotatable=1;deletable=1;editable=1;connectable=1;" parent="1" vertex="1">
          <mxGeometry x="-2270" y="258" width="240" height="30" as="geometry" />
        </mxCell>
        <mxCell id="wpUrbpQFlTFq2Zsuffso-826" value="" style="edgeStyle=orthogonalEdgeStyle;html=1;fontColor=#66CC00;entryX=0.495;entryY=0.001;entryDx=0;entryDy=0;entryPerimeter=0;" parent="1" source="wpUrbpQFlTFq2Zsuffso-808" target="wpUrbpQFlTFq2Zsuffso-809" edge="1">
          <mxGeometry relative="1" as="geometry" />
        </mxCell>
        <mxCell id="wpUrbpQFlTFq2Zsuffso-808" value="定时器" style="rounded=1;whiteSpace=wrap;html=1;movable=1;resizable=1;rotatable=1;deletable=1;editable=1;connectable=1;" parent="1" vertex="1">
          <mxGeometry x="-2270" y="298" width="240" height="30" as="geometry" />
        </mxCell>
        <mxCell id="wpUrbpQFlTFq2Zsuffso-809" value="aggregator/aggregator.go&lt;br&gt;#133" style="whiteSpace=wrap;html=1;rounded=1;verticalAlign=top;movable=1;resizable=1;rotatable=1;deletable=1;editable=1;connectable=1;" parent="1" vertex="1">
          <mxGeometry x="-2279" y="480" width="260" height="162" as="geometry" />
        </mxCell>
        <mxCell id="wpUrbpQFlTFq2Zsuffso-845" value="" style="edgeStyle=orthogonalEdgeStyle;html=1;fontColor=#66CC00;entryX=0.498;entryY=-0.002;entryDx=0;entryDy=0;entryPerimeter=0;" parent="1" source="wpUrbpQFlTFq2Zsuffso-810" target="wpUrbpQFlTFq2Zsuffso-791" edge="1">
          <mxGeometry relative="1" as="geometry" />
        </mxCell>
        <mxCell id="wpUrbpQFlTFq2Zsuffso-810" value="当节点同步了来自L1的所有信息时，从与可信状态相关的可信定序器同步信息" style="rounded=1;whiteSpace=wrap;html=1;movable=1;resizable=1;rotatable=1;deletable=1;editable=1;connectable=1;" parent="1" vertex="1">
          <mxGeometry x="-2259" y="600" width="220" height="30" as="geometry" />
        </mxCell>
        <mxCell id="wpUrbpQFlTFq2Zsuffso-811" value="获取最后定序的批次和最后同步的批次，判断最后同步批次大于等于最后定序批次，则L1状态完整同步完成" style="rounded=1;whiteSpace=wrap;html=1;movable=1;resizable=1;rotatable=1;deletable=1;editable=1;connectable=1;" parent="1" vertex="1">
          <mxGeometry x="-2259" y="560" width="220" height="30" as="geometry" />
        </mxCell>
        <mxCell id="wpUrbpQFlTFq2Zsuffso-827" value="" style="edgeStyle=orthogonalEdgeStyle;html=1;fontColor=#66CC00;entryX=1.002;entryY=0.497;entryDx=0;entryDy=0;entryPerimeter=0;" parent="1" source="wpUrbpQFlTFq2Zsuffso-812" target="wpUrbpQFlTFq2Zsuffso-817" edge="1">
          <mxGeometry relative="1" as="geometry" />
        </mxCell>
        <mxCell id="wpUrbpQFlTFq2Zsuffso-812" value="同步L1区块" style="rounded=1;whiteSpace=wrap;html=1;movable=1;resizable=1;rotatable=1;deletable=1;editable=1;connectable=1;" parent="1" vertex="1">
          <mxGeometry x="-2259" y="520" width="220" height="30" as="geometry" />
        </mxCell>
        <mxCell id="wpUrbpQFlTFq2Zsuffso-817" value="synchronizer/synchronizer.go&lt;br&gt;#syncBlocks" style="whiteSpace=wrap;html=1;rounded=1;verticalAlign=top;movable=1;resizable=1;rotatable=1;deletable=1;editable=1;connectable=1;" parent="1" vertex="1">
          <mxGeometry x="-2712" y="412.25" width="260" height="245.5" as="geometry" />
        </mxCell>
        <mxCell id="wpUrbpQFlTFq2Zsuffso-818" value="调用以太坊区块链检索区块头数据" style="rounded=1;whiteSpace=wrap;html=1;movable=1;resizable=1;rotatable=1;deletable=1;editable=1;connectable=1;" parent="1" vertex="1">
          <mxGeometry x="-2692" y="532.25" width="220" height="30" as="geometry" />
        </mxCell>
        <mxCell id="wpUrbpQFlTFq2Zsuffso-843" value="" style="edgeStyle=orthogonalEdgeStyle;html=1;fontColor=#66CC00;entryX=1.001;entryY=0.5;entryDx=0;entryDy=0;entryPerimeter=0;" parent="1" source="wpUrbpQFlTFq2Zsuffso-819" target="wpUrbpQFlTFq2Zsuffso-828" edge="1">
          <mxGeometry relative="1" as="geometry" />
        </mxCell>
        <mxCell id="wpUrbpQFlTFq2Zsuffso-819" value="存在重组则重置状态，并返回" style="rounded=1;whiteSpace=wrap;html=1;movable=1;resizable=1;rotatable=1;deletable=1;editable=1;connectable=1;" parent="1" vertex="1">
          <mxGeometry x="-2692" y="492.25" width="220" height="30" as="geometry" />
        </mxCell>
        <mxCell id="wpUrbpQFlTFq2Zsuffso-820" value="检查是否存在重组" style="rounded=1;whiteSpace=wrap;html=1;movable=1;resizable=1;rotatable=1;deletable=1;editable=1;connectable=1;" parent="1" vertex="1">
          <mxGeometry x="-2692" y="452.25" width="220" height="30" as="geometry" />
        </mxCell>
        <mxCell id="wpUrbpQFlTFq2Zsuffso-841" value="" style="edgeStyle=orthogonalEdgeStyle;html=1;fontColor=#66CC00;entryX=1.002;entryY=0.503;entryDx=0;entryDy=0;entryPerimeter=0;" parent="1" source="wpUrbpQFlTFq2Zsuffso-822" target="wpUrbpQFlTFq2Zsuffso-832" edge="1">
          <mxGeometry relative="1" as="geometry" />
        </mxCell>
        <mxCell id="wpUrbpQFlTFq2Zsuffso-822" value="处理区块，使用状态将新信息包含到数据库中" style="rounded=1;whiteSpace=wrap;html=1;movable=1;resizable=1;rotatable=1;deletable=1;editable=1;connectable=1;" parent="1" vertex="1">
          <mxGeometry x="-2692" y="612.25" width="220" height="30" as="geometry" />
        </mxCell>
        <mxCell id="wpUrbpQFlTFq2Zsuffso-823" value="查找包含在以太坊块中的rollup信息和一个名为order的额外参数，解析并处理event log" style="rounded=1;whiteSpace=wrap;html=1;movable=1;resizable=1;rotatable=1;deletable=1;editable=1;connectable=1;" parent="1" vertex="1">
          <mxGeometry x="-2692" y="572.25" width="220" height="30" as="geometry" />
        </mxCell>
        <mxCell id="wpUrbpQFlTFq2Zsuffso-828" value="synchronizer/synchronizer.go&lt;br&gt;#resetState" style="whiteSpace=wrap;html=1;rounded=1;verticalAlign=top;movable=1;resizable=1;rotatable=1;deletable=1;editable=1;connectable=1;" parent="1" vertex="1">
          <mxGeometry x="-3132" y="371" width="260" height="124" as="geometry" />
        </mxCell>
        <mxCell id="wpUrbpQFlTFq2Zsuffso-830" value="将提供的blockNumber直到最新blockNumber的所有受监控的tx更新到Reorged状态" style="rounded=1;whiteSpace=wrap;html=1;movable=1;resizable=1;rotatable=1;deletable=1;editable=1;connectable=1;" parent="1" vertex="1">
          <mxGeometry x="-3112" y="451" width="220" height="30" as="geometry" />
        </mxCell>
        <mxCell id="wpUrbpQFlTFq2Zsuffso-831" value="重置，即删除blockNumber之后的区块数据" style="rounded=1;whiteSpace=wrap;html=1;movable=1;resizable=1;rotatable=1;deletable=1;editable=1;connectable=1;" parent="1" vertex="1">
          <mxGeometry x="-3112" y="411" width="220" height="30" as="geometry" />
        </mxCell>
        <mxCell id="wpUrbpQFlTFq2Zsuffso-832" value="synchronizer/synchronizer.go&lt;br&gt;#processBlockRange" style="whiteSpace=wrap;html=1;rounded=1;verticalAlign=top;movable=1;resizable=1;rotatable=1;deletable=1;editable=1;connectable=1;" parent="1" vertex="1">
          <mxGeometry x="-3132" y="542.25" width="260" height="288.75" as="geometry" />
        </mxCell>
        <mxCell id="wpUrbpQFlTFq2Zsuffso-833" value="etherman.GlobalExitRootsOrder类型" style="rounded=1;whiteSpace=wrap;html=1;movable=1;resizable=1;rotatable=1;deletable=1;editable=1;connectable=1;" parent="1" vertex="1">
          <mxGeometry x="-3112" y="662.25" width="220" height="30" as="geometry" />
        </mxCell>
        <mxCell id="wpUrbpQFlTFq2Zsuffso-834" value="etherman.ForcedBatchesOrder类型" style="rounded=1;whiteSpace=wrap;html=1;movable=1;resizable=1;rotatable=1;deletable=1;editable=1;connectable=1;" parent="1" vertex="1">
          <mxGeometry x="-3112" y="622.25" width="220" height="30" as="geometry" />
        </mxCell>
        <mxCell id="wpUrbpQFlTFq2Zsuffso-835" value="etherman.SequenceBatchesOrder类型" style="rounded=1;whiteSpace=wrap;html=1;movable=1;resizable=1;rotatable=1;deletable=1;editable=1;connectable=1;" parent="1" vertex="1">
          <mxGeometry x="-3112" y="582.25" width="220" height="30" as="geometry" />
        </mxCell>
        <mxCell id="wpUrbpQFlTFq2Zsuffso-836" value="etherman.ForkIDsOrder类型" style="rounded=1;whiteSpace=wrap;html=1;movable=1;resizable=1;rotatable=1;deletable=1;editable=1;connectable=1;" parent="1" vertex="1">
          <mxGeometry x="-3112" y="782.25" width="220" height="30" as="geometry" />
        </mxCell>
        <mxCell id="wpUrbpQFlTFq2Zsuffso-837" value="etherman.TrustedVerifyBatchOrder类型" style="rounded=1;whiteSpace=wrap;html=1;movable=1;resizable=1;rotatable=1;deletable=1;editable=1;connectable=1;" parent="1" vertex="1">
          <mxGeometry x="-3112" y="742.25" width="220" height="30" as="geometry" />
        </mxCell>
        <mxCell id="wpUrbpQFlTFq2Zsuffso-838" value="etherman.SequenceForceBatchesOrder类型" style="rounded=1;whiteSpace=wrap;html=1;movable=1;resizable=1;rotatable=1;deletable=1;editable=1;connectable=1;" parent="1" vertex="1">
          <mxGeometry x="-3112" y="702.25" width="220" height="30" as="geometry" />
        </mxCell>
        <mxCell id="wpUrbpQFlTFq2Zsuffso-846" value="state/state.go&lt;br&gt;#ProcessSequencerBatch" style="whiteSpace=wrap;html=1;rounded=1;verticalAlign=top;movable=1;resizable=1;rotatable=1;deletable=1;editable=1;connectable=1;" parent="1" vertex="1">
          <mxGeometry x="-2712" y="850.75" width="260" height="80.25" as="geometry" />
        </mxCell>
        <mxCell id="wpUrbpQFlTFq2Zsuffso-849" value="&lt;font color=&quot;#66cc00&quot;&gt;最终调用Prover的executor模块&lt;/font&gt;执行交易并返回结果" style="rounded=1;whiteSpace=wrap;html=1;movable=1;resizable=1;rotatable=1;deletable=1;editable=1;connectable=1;" parent="1" vertex="1">
          <mxGeometry x="-2692" y="890.75" width="220" height="30" as="geometry" />
        </mxCell>
      </root>
    </mxGraphModel>
  </diagram>
</mxfile>
